<?xml version="1.0" standalone="no"?>
<!DOCTYPE svg PUBLIC "-//W3C//DTD SVG 20010904//EN"
 "http://www.w3.org/TR/2001/REC-SVG-20010904/DTD/svg10.dtd">
<svg version="1.0" xmlns="http://www.w3.org/2000/svg"
 width="446.000000pt" height="224.000000pt" viewBox="0 0 446.000000 224.000000"
 preserveAspectRatio="xMidYMid meet">

<g transform="translate(0.000000,224.000000) scale(0.100000,-0.100000)"
fill="#000000" stroke="none">
<path d="M0 1120 l0 -1120 2230 0 2230 0 0 1120 0 1120 -2230 0 -2230 0 0
-1120z m615 361 c101 -45 133 -154 75 -249 -28 -45 -89 -72 -167 -72 l-63 0 0
-65 0 -65 -55 0 -55 0 0 235 0 235 113 0 c87 0 121 -5 152 -19z m645 -211 c50
-124 90 -228 90 -232 0 -5 -26 -8 -58 -8 l-59 0 -12 40 -12 40 -93 0 -93 0
-13 -40 -13 -40 -59 0 c-32 0 -58 2 -58 5 0 3 41 109 91 236 l91 230 54 -3 55
-3 89 -225z m384 163 c14 -38 40 -107 58 -156 l34 -87 53 143 c29 79 56 149
60 156 5 8 28 11 64 9 l55 -3 -88 -230 -88 -230 -57 0 -57 0 -89 230 c-49 127
-89 231 -89 233 0 1 27 2 59 2 l59 0 26 -67z m2399 -214 c55 -15 106 -65 114
-111 l6 -38 -51 0 c-45 0 -52 3 -64 27 -22 44 -107 52 -129 12 -19 -35 5 -56
98 -84 65 -20 95 -35 121 -61 33 -33 34 -37 30 -89 -8 -92 -66 -135 -183 -135
-90 0 -167 54 -181 128 l-6 32 55 0 c49 0 55 -2 61 -23 10 -43 82 -61 124 -31
50 35 19 72 -81 98 -121 31 -173 94 -148 178 26 84 128 127 234 97z m-1377
-236 l92 -233 -59 0 -59 0 -16 40 -16 40 -90 0 -90 0 -15 -40 -16 -40 -59 0
c-33 0 -58 4 -56 9 2 4 43 110 93 235 l89 227 55 -3 55 -3 92 -232z m403 89
l46 -143 49 146 50 145 52 0 52 0 30 -82 c16 -46 37 -107 46 -135 10 -29 21
-55 25 -58 4 -2 27 59 51 135 l43 140 59 0 c57 0 59 -1 52 -22 -4 -13 -38
-119 -76 -236 l-69 -213 -56 3 -55 3 -49 139 c-26 76 -49 140 -51 141 -2 2
-26 -61 -53 -141 l-50 -144 -56 0 -55 0 -72 223 c-40 123 -72 229 -72 236 0 8
17 11 56 9 l56 -3 47 -143z"/>
<path d="M460 1325 l0 -75 28 0 c57 0 101 19 109 48 17 67 -13 102 -88 102
l-49 0 0 -75z"/>
<path d="M1087 1282 c-15 -40 -27 -75 -27 -78 0 -2 25 -4 56 -4 55 0 56 1 50
25 -4 14 -17 48 -29 77 l-23 52 -27 -72z"/>
<path d="M2488 998 c-15 -40 -26 -74 -24 -76 2 -1 29 -2 59 0 l55 3 -27 67
c-14 36 -29 69 -31 72 -3 3 -18 -27 -32 -66z"/>
</g>
</svg>
